# File created by Blade
# Date/Time:  Wed Apr 08 17:04:22 2015
# Frame Rate: 120.000 fps
#------------------------------------------------------
:FULLY-SPECIFIED
:DEGREES
1002
root 3.460849 35.922419 4.120070 -145.565829 -78.525506 173.869552
Spine -29.646173 -15.889777 -2.261256
Head 55.140002 -13.878868 -17.417628
LeftShoulder 15.058102 -2.043912 28.828723
LeftArm 104.674736 42.385213 -40.212538
LeftForeArm -0.057291 -0.000000 93.926170
LeftHand -7.763301 0.000000 -15.646923
LeftHandThumb1 -26.253704 0.000000 33.147579
RightShoulder -12.872131 -66.981473 -19.485369
RightArm 33.049541 19.512083 65.119546
RightForeArm 23.239543 -0.000000 34.019202
RightHand 10.450505 -0.000000 -40.336147
RightHandThumb1 -24.326973 -0.000000 -32.862282
LeftUpLeg -31.595006 11.860464 -4.520933
LeftLeg 19.922096 -0.000000 -0.000000
LeftFoot -18.269405 11.015233 -15.871875
LeftToeBase 8.655143 -0.000000 -0.000000
RightUpLeg -34.567917 -4.400613 -10.332706
RightLeg 16.821499 -0.000000 -0.000000
RightFoot -10.756034 3.688213 20.043704
RightToeBase 13.281623 -0.000000 -0.000000
1003
root 3.464180 35.922567 4.118698 -145.375213 -78.657174 173.725219
Spine -29.661699 -15.947927 -2.255466
Head 55.237999 -13.785993 -17.526127
LeftShoulder 15.008620 -2.016697 28.699263
LeftArm 104.760494 42.388770 -40.125756
LeftForeArm -0.149080 -0.000000 93.884064
LeftHand -7.723160 -0.000000 -15.563146
LeftHandThumb1 -26.253704 0.000000 33.147579
RightShoulder -12.895156 -67.090045 -19.535982
RightArm 32.787035 18.162666 63.957166
RightForeArm 21.474291 -0.000000 31.448923
RightHand 10.549679 -0.000000 -39.762180
RightHandThumb1 -24.326973 -0.000000 -32.862282
LeftUpLeg -31.666962 11.785058 -4.499975
LeftLeg 19.933909 -0.000000 -0.000000
LeftFoot -18.240297 10.964570 -15.845440
LeftToeBase 8.663545 -0.000000 -0.000000
RightUpLeg -34.592475 -4.470942 -10.303974
RightLeg 16.842161 -0.000000 -0.000000
RightFoot -10.797952 3.636850 20.063396
RightToeBase 13.304599 -0.000000 -0.000000
1004
root 3.465582 35.921979 4.118285 -145.182414 -78.761101 173.555917
Spine -29.654816 -15.978982 -2.268609
Head 55.314420 -13.650551 -17.655676
LeftShoulder 14.975813 -2.025177 28.599533
LeftArm 104.779237 42.445137 -40.097482
LeftForeArm -0.169865 0.000000 93.853620
LeftHand -7.669233 0.000000 -15.533639
LeftHandThumb1 -26.253704 0.000000 33.147579
RightShoulder -12.857833 -67.180492 -19.652870
RightArm 32.485156 16.725806 62.816325
RightForeArm 19.571732 -0.000000 29.039003
RightHand 10.527242 0.000000 -38.834569
RightHandThumb1 -24.326973 -0.000000 -32.862282
LeftUpLeg -31.700392 11.748065 -4.499125
LeftLeg 19.924649 -0.000000 -0.000000
LeftFoot -18.204170 10.884917 -15.835289
LeftToeBase 8.628796 -0.000000 -0.000000
RightUpLeg -34.598513 -4.513065 -10.301619
RightLeg 16.864466 -0.000000 -0.000000
RightFoot -10.852881 3.586747 20.099560
RightToeBase 13.321809 -0.000000 -0.000000
1005
root 3.469494 35.921850 4.115854 -145.002296 -78.880859 173.427277
Spine -29.684403 -16.034755 -2.242953
Head 55.362080 -13.479283 -17.745493
LeftShoulder 14.882698 -1.804510 28.505992
LeftArm 105.039372 42.335416 -39.859432
LeftForeArm -0.223076 -0.000000 93.816920
LeftHand -7.726041 -0.000000 -15.444058
LeftHandThumb1 -26.253704 0.000000 33.147579
RightShoulder -12.780901 -67.297790 -19.810288
RightArm 32.208488 15.119818 61.635899
RightForeArm 17.587742 -0.000000 26.854493
RightHand 10.025554 -0.000000 -37.846540
RightHandThumb1 -24.326973 -0.000000 -32.862282
LeftUpLeg -31.771522 11.695967 -4.483268
LeftLeg 19.924004 -0.000000 -0.000000
LeftFoot -18.178924 10.829811 -15.811380
LeftToeBase 8.671917 -0.000000 -0.000000
RightUpLeg -34.629217 -4.545155 -10.286000
RightLeg 16.884074 -0.000000 -0.000000
RightFoot -10.912132 3.500134 20.105720
RightToeBase 13.325595 -0.000000 -0.000000
